<?xml version="1.0" encoding="UTF-8" standalone="no"?>
<!DOCTYPE svg PUBLIC "-//W3C//DTD SVG 1.1//EN" "http://www.w3.org/Graphics/SVG/1.1/DTD/svg11.dtd">
<!-- Gegenereerd door Microsoft Visio, SVG Export Raster 2.svg Pagina-1 -->
<svg xmlns="http://www.w3.org/2000/svg" xmlns:xlink="http://www.w3.org/1999/xlink" xmlns:ev="http://www.w3.org/2001/xml-events"
		xmlns:v="http://schemas.microsoft.com/visio/2003/SVGExtensions/" width="11.6929in" height="8.65561in"
		viewBox="0 0 841.89 623.204" xml:space="preserve" color-interpolation-filters="sRGB" class="st8">
	<title>I-18xxx</title>
	<v:documentProperties v:langID="1043" v:metric="true" v:viewMarkup="false"/>

	<style type="text/css">
	<![CDATA[
		.st1 {fill:#ffffff;visibility:hidden}
		.st2 {stroke:#ff00ff;stroke-linecap:round;stroke-linejoin:round;stroke-width:0.75}
		.st3 {fill:#ffffff}
		.st4 {stroke:#000000;stroke-linecap:round;stroke-linejoin:round;stroke-width:0.75}
		.st5 {fill:none;stroke:none;stroke-linecap:round;stroke-linejoin:round;stroke-width:0.75}
		.st6 {fill:#000000;font-family:Calibri;font-size:0.800011em}
		.st7 {font-size:1em}
		.st8 {fill:none;fill-rule:evenodd;font-size:12px;overflow:visible;stroke-linecap:square;stroke-miterlimit:3}
	]]>
	</style>

	<g v:mID="0" v:index="1" v:groupContext="foregroundPage">
		<title>Pagina-1</title>
		<v:pageProperties v:drawingScale="0.0393701" v:pageScale="0.0393701" v:drawingUnits="24" v:shadowOffsetX="8.50394"
				v:shadowOffsetY="-8.50394"/>
		<g id="group559-1" v:mID="559" v:groupContext="group">
			<v:userDefs>
				<v:ud v:nameU="AntiScale" v:val="VT0(1):26"/>
				<v:ud v:nameU="visVersion" v:val="VT0(15):26"/>
			</v:userDefs>
			<title>Zones -8</title>
			<g id="shape560-2" v:mID="560" v:groupContext="shape" transform="translate(18,-18)">
				<title>Blad.560</title>
				<rect x="0" y="36" width="805.89" height="587.204" class="st1"/>
				<rect x="0" y="36" width="805.89" height="587.204" class="st2"/>
			</g>
			<g id="shape561-5" v:mID="561" v:groupContext="shape" transform="translate(18,-18)">
				<title>Blad.561</title>
				<path d="M794.55 541.3 L805.89 541.3 L794.55 541.3 Z" class="st3"/>
				<path d="M109.24 47.34 L109.24 36" class="st4"/>
				<path d="M207.14 47.34 L207.14 36" class="st4"/>
				<path d="M305.04 47.34 L305.04 36" class="st4"/>
				<path d="M402.94 47.34 L402.94 36" class="st4"/>
				<path d="M500.85 47.34 L500.85 36" class="st4"/>
				<path d="M598.75 47.34 L598.75 36" class="st4"/>
				<path d="M696.65 47.34 L696.65 36" class="st4"/>
				<path d="M109.24 611.87 L109.24 623.2" class="st4"/>
				<path d="M207.14 611.87 L207.14 623.2" class="st4"/>
				<path d="M305.04 611.87 L305.04 623.2" class="st4"/>
				<path d="M402.94 611.87 L402.94 623.2" class="st4"/>
				<path d="M500.85 611.87 L500.85 623.2" class="st4"/>
				<path d="M598.75 611.87 L598.75 623.2" class="st4"/>
				<path d="M696.65 611.87 L696.65 623.2" class="st4"/>
				<path d="M11.34 117.9 L0 117.9" class="st4"/>
				<path d="M11.34 188.47 L0 188.47" class="st4"/>
				<path d="M11.34 259.04 L0 259.04" class="st4"/>
				<path d="M11.34 329.6 L0 329.6" class="st4"/>
				<path d="M11.34 400.17 L0 400.17" class="st4"/>
				<path d="M11.34 470.73 L0 470.73" class="st4"/>
				<path d="M11.34 541.3 L0 541.3" class="st4"/>
				<path d="M794.55 117.9 L805.89 117.9" class="st4"/>
				<path d="M794.55 188.47 L805.89 188.47" class="st4"/>
				<path d="M794.55 259.04 L805.89 259.04" class="st4"/>
				<path d="M794.55 329.6 L805.89 329.6" class="st4"/>
				<path d="M794.55 400.17 L805.89 400.17" class="st4"/>
				<path d="M794.55 470.73 L805.89 470.73" class="st4"/>
				<path d="M794.55 541.3 L805.89 541.3" class="st4"/>
				<path d="" class="st4"/>
				<path d="M11.34 47.34 L11.34 611.87 L794.55 611.87 L794.55 47.34 L11.34 47.34" class="st4"/>
			</g>
			<g id="shape562-37" v:mID="562" v:groupContext="shape" transform="translate(812.551,-18)">
				<title>Blad.562</title>
				<desc>H G F E D C B A</desc>
				<v:textBlock v:margins="rect(0,0,0,0)" v:tabSpace="42.5197" v:verticalAlign="0"/>
				<v:textRect cx="5.66929" cy="319.212" width="11.34" height="564.527"/>
				<rect x="0" y="36" width="11.3386" height="587.204" class="st5"/>
				<text x="2.68" y="89.87" class="st6" v:langID="1043"><v:paragraph v:spLine="0.980081" v:horizAlign="1"/><v:tabList/>H<v:newlineChar/><tspan
							x="2.64" dy="7.35em" class="st7">G<v:newlineChar/></tspan><tspan x="3.46" dy="7.351em" class="st7">F<v:newlineChar/></tspan><tspan
							x="3.33" dy="7.35em" class="st7">E<v:newlineChar/></tspan><tspan x="2.72" dy="7.351em" class="st7">D<v:newlineChar/></tspan><tspan
							x="3.11" dy="7.35em" class="st7">C<v:newlineChar/></tspan><tspan x="3.06" dy="7.351em" class="st7">B<v:newlineChar/></tspan><tspan
							x="2.89" dy="7.35em" class="st7">A</tspan><v:newlineChar/></text>			</g>
			<g id="shape563-47" v:mID="563" v:groupContext="shape" transform="translate(18,-18)">
				<title>Blad.563</title>
				<desc>8 7 6 5 4 3 2 1</desc>
				<v:textBlock v:margins="rect(0,0,0,0)" v:tabSpace="42.5197"/>
				<v:textRect cx="402.945" cy="617.535" width="805.89" height="11.3386"/>
				<rect x="0" y="611.865" width="805.89" height="11.3386" class="st5"/>
				<text x="60.29" y="620.89" class="st6" v:langID="1043"><v:paragraph v:spLine="-1.4"/><v:tabList/><v:tabChar/>8<v:tabChar/><tspan
							dx="9.691em" class="st7">7<v:tabChar/></tspan><tspan dx="9.691em" class="st7">6<v:tabChar/></tspan><tspan
							dx="9.691em" class="st7">5<v:tabChar/></tspan><tspan dx="9.691em" class="st7">4<v:tabChar/></tspan><tspan
							dx="9.691em" class="st7">3<v:tabChar/></tspan><tspan dx="9.691em" class="st7">2<v:tabChar/></tspan><tspan
							dx="9.691em" class="st7">1</tspan></text>			</g>
			<g id="shape564-57" v:mID="564" v:groupContext="shape" transform="translate(18,-18)">
				<title>Blad.564</title>
				<desc>H G F E D C B A</desc>
				<v:textBlock v:margins="rect(0,0,0,0)" v:tabSpace="42.5197" v:verticalAlign="0"/>
				<v:textRect cx="5.66929" cy="319.212" width="11.34" height="564.527"/>
				<rect x="0" y="36" width="11.3386" height="587.204" class="st5"/>
				<text x="2.68" y="89.87" class="st6" v:langID="1043"><v:paragraph v:spLine="0.980081" v:horizAlign="1"/><v:tabList/>H<v:newlineChar/><tspan
							x="2.64" dy="7.35em" class="st7">G<v:newlineChar/></tspan><tspan x="3.46" dy="7.351em" class="st7">F<v:newlineChar/></tspan><tspan
							x="3.33" dy="7.35em" class="st7">E<v:newlineChar/></tspan><tspan x="2.72" dy="7.351em" class="st7">D<v:newlineChar/></tspan><tspan
							x="3.11" dy="7.35em" class="st7">C<v:newlineChar/></tspan><tspan x="3.06" dy="7.351em" class="st7">B<v:newlineChar/></tspan><tspan
							x="2.89" dy="7.35em" class="st7">A</tspan><v:newlineChar/></text>			</g>
			<g id="shape565-67" v:mID="565" v:groupContext="shape" transform="translate(18,-593.865)">
				<title>Blad.565</title>
				<desc>8 7 6 5 4 3 2 1</desc>
				<v:textBlock v:margins="rect(0,0,0,0)" v:tabSpace="42.5197"/>
				<v:textRect cx="402.945" cy="617.535" width="805.89" height="11.3386"/>
				<rect x="0" y="611.865" width="805.89" height="11.3386" class="st5"/>
				<text x="60.29" y="620.89" class="st6" v:langID="1043"><v:paragraph v:spLine="-1.4"/><v:tabList/><v:tabChar/>8<v:tabChar/><tspan
							dx="9.691em" class="st7">7<v:tabChar/></tspan><tspan dx="9.691em" class="st7">6<v:tabChar/></tspan><tspan
							dx="9.691em" class="st7">5<v:tabChar/></tspan><tspan dx="9.691em" class="st7">4<v:tabChar/></tspan><tspan
							dx="9.691em" class="st7">3<v:tabChar/></tspan><tspan dx="9.691em" class="st7">2<v:tabChar/></tspan><tspan
							dx="9.691em" class="st7">1</tspan></text>			</g>
		</g>
	</g>
</svg>
